<mxfile host="app.diagrams.net" modified="2021-05-11T08:27:58.960Z" agent="5.0 (Windows NT 10.0; Win64; x64) AppleWebKit/537.36 (KHTML, like Gecko) Chrome/89.0.4389.90 Safari/537.36 Edg/89.0.774.57" etag="TANJwSWUnvLBtBWGkpQZ" version="14.6.11" type="github">
  <diagram id="ahPe3aZHbQz_-VwwGzd9" name="Page-1">
    <mxGraphModel dx="870" dy="547" grid="1" gridSize="10" guides="1" tooltips="1" connect="1" arrows="1" fold="1" page="1" pageScale="1" pageWidth="827" pageHeight="1169" math="0" shadow="0">
      <root>
        <mxCell id="0" />
        <mxCell id="1" parent="0" />
        <mxCell id="WuwuYdfBaCyhpfjzRDQT-1" value="Local Storage" style="ellipse;whiteSpace=wrap;html=1;fillColor=#e1d5e7;strokeColor=#9673a6;" vertex="1" parent="1">
          <mxGeometry x="310" y="380" width="170" height="80" as="geometry" />
        </mxCell>
        <mxCell id="WuwuYdfBaCyhpfjzRDQT-2" value="&lt;font style=&quot;font-size: 14px&quot;&gt;&lt;b&gt;Services&lt;/b&gt;&lt;/font&gt;" style="rounded=1;whiteSpace=wrap;html=1;align=left;" vertex="1" parent="1">
          <mxGeometry x="140" y="100" width="500" height="240" as="geometry" />
        </mxCell>
        <mxCell id="WuwuYdfBaCyhpfjzRDQT-3" value="Recipe Service" style="rounded=1;whiteSpace=wrap;html=1;fillColor=#d5e8d4;strokeColor=#82b366;" vertex="1" parent="1">
          <mxGeometry x="250" y="120" width="120" height="60" as="geometry" />
        </mxCell>
        <mxCell id="WuwuYdfBaCyhpfjzRDQT-4" value="User Service" style="rounded=1;whiteSpace=wrap;html=1;fillColor=#d5e8d4;strokeColor=#82b366;" vertex="1" parent="1">
          <mxGeometry x="430" y="120" width="120" height="60" as="geometry" />
        </mxCell>
        <mxCell id="WuwuYdfBaCyhpfjzRDQT-5" value="Token-storage Service" style="rounded=1;whiteSpace=wrap;html=1;fillColor=#d5e8d4;strokeColor=#82b366;" vertex="1" parent="1">
          <mxGeometry x="330" y="250" width="120" height="60" as="geometry" />
        </mxCell>
        <mxCell id="WuwuYdfBaCyhpfjzRDQT-6" value="" style="endArrow=classic;html=1;exitX=0.379;exitY=0.958;exitDx=0;exitDy=0;exitPerimeter=0;entryX=0.376;entryY=0.006;entryDx=0;entryDy=0;entryPerimeter=0;" edge="1" parent="1" source="WuwuYdfBaCyhpfjzRDQT-5" target="WuwuYdfBaCyhpfjzRDQT-1">
          <mxGeometry width="50" height="50" relative="1" as="geometry">
            <mxPoint x="390" y="300" as="sourcePoint" />
            <mxPoint x="440" y="250" as="targetPoint" />
          </mxGeometry>
        </mxCell>
        <mxCell id="WuwuYdfBaCyhpfjzRDQT-7" value="" style="endArrow=classic;html=1;" edge="1" parent="1" source="WuwuYdfBaCyhpfjzRDQT-1" target="WuwuYdfBaCyhpfjzRDQT-5">
          <mxGeometry width="50" height="50" relative="1" as="geometry">
            <mxPoint x="390" y="300" as="sourcePoint" />
            <mxPoint x="440" y="250" as="targetPoint" />
          </mxGeometry>
        </mxCell>
        <mxCell id="WuwuYdfBaCyhpfjzRDQT-8" value="Store token" style="text;html=1;align=center;verticalAlign=middle;resizable=0;points=[];autosize=1;strokeColor=none;" vertex="1" parent="1">
          <mxGeometry x="290" y="340" width="80" height="20" as="geometry" />
        </mxCell>
        <mxCell id="WuwuYdfBaCyhpfjzRDQT-9" value="get token" style="text;html=1;align=center;verticalAlign=middle;resizable=0;points=[];autosize=1;strokeColor=none;" vertex="1" parent="1">
          <mxGeometry x="395" y="350" width="70" height="20" as="geometry" />
        </mxCell>
        <mxCell id="WuwuYdfBaCyhpfjzRDQT-10" value="" style="endArrow=classic;html=1;exitX=0.25;exitY=0;exitDx=0;exitDy=0;entryX=0.654;entryY=1.067;entryDx=0;entryDy=0;entryPerimeter=0;" edge="1" parent="1" source="WuwuYdfBaCyhpfjzRDQT-5" target="WuwuYdfBaCyhpfjzRDQT-3">
          <mxGeometry width="50" height="50" relative="1" as="geometry">
            <mxPoint x="390" y="300" as="sourcePoint" />
            <mxPoint x="440" y="250" as="targetPoint" />
          </mxGeometry>
        </mxCell>
        <mxCell id="WuwuYdfBaCyhpfjzRDQT-12" value="" style="endArrow=classic;html=1;exitX=0.638;exitY=0.017;exitDx=0;exitDy=0;exitPerimeter=0;" edge="1" parent="1" source="WuwuYdfBaCyhpfjzRDQT-5" target="WuwuYdfBaCyhpfjzRDQT-4">
          <mxGeometry width="50" height="50" relative="1" as="geometry">
            <mxPoint x="390" y="300" as="sourcePoint" />
            <mxPoint x="440" y="250" as="targetPoint" />
          </mxGeometry>
        </mxCell>
        <mxCell id="WuwuYdfBaCyhpfjzRDQT-13" value="token" style="text;html=1;align=center;verticalAlign=middle;resizable=0;points=[];autosize=1;strokeColor=none;" vertex="1" parent="1">
          <mxGeometry x="450" y="210" width="50" height="20" as="geometry" />
        </mxCell>
        <mxCell id="WuwuYdfBaCyhpfjzRDQT-14" value="token" style="text;html=1;align=center;verticalAlign=middle;resizable=0;points=[];autosize=1;strokeColor=none;" vertex="1" parent="1">
          <mxGeometry x="280" y="210" width="50" height="20" as="geometry" />
        </mxCell>
        <mxCell id="WuwuYdfBaCyhpfjzRDQT-15" value="&lt;b&gt;&lt;font style=&quot;font-size: 17px&quot;&gt;Server&lt;/font&gt;&lt;/b&gt;" style="rounded=1;whiteSpace=wrap;html=1;fillColor=#fff2cc;strokeColor=#d6b656;" vertex="1" parent="1">
          <mxGeometry x="150" y="10" width="510" height="60" as="geometry" />
        </mxCell>
        <mxCell id="WuwuYdfBaCyhpfjzRDQT-16" value="" style="endArrow=classic;html=1;entryX=0.229;entryY=1;entryDx=0;entryDy=0;entryPerimeter=0;" edge="1" parent="1" target="WuwuYdfBaCyhpfjzRDQT-15">
          <mxGeometry width="50" height="50" relative="1" as="geometry">
            <mxPoint x="270" y="120" as="sourcePoint" />
            <mxPoint x="320" y="70" as="targetPoint" />
          </mxGeometry>
        </mxCell>
        <mxCell id="WuwuYdfBaCyhpfjzRDQT-17" value="" style="endArrow=classic;html=1;" edge="1" parent="1" target="WuwuYdfBaCyhpfjzRDQT-3">
          <mxGeometry width="50" height="50" relative="1" as="geometry">
            <mxPoint x="300" y="70" as="sourcePoint" />
            <mxPoint x="350" y="20" as="targetPoint" />
          </mxGeometry>
        </mxCell>
        <mxCell id="WuwuYdfBaCyhpfjzRDQT-18" value="" style="endArrow=classic;html=1;entryX=0.597;entryY=1.058;entryDx=0;entryDy=0;entryPerimeter=0;" edge="1" parent="1" target="WuwuYdfBaCyhpfjzRDQT-15">
          <mxGeometry width="50" height="50" relative="1" as="geometry">
            <mxPoint x="450" y="120" as="sourcePoint" />
            <mxPoint x="500" y="70" as="targetPoint" />
          </mxGeometry>
        </mxCell>
        <mxCell id="WuwuYdfBaCyhpfjzRDQT-19" value="" style="endArrow=classic;html=1;entryX=0.5;entryY=0;entryDx=0;entryDy=0;" edge="1" parent="1" target="WuwuYdfBaCyhpfjzRDQT-4">
          <mxGeometry width="50" height="50" relative="1" as="geometry">
            <mxPoint x="490" y="70" as="sourcePoint" />
            <mxPoint x="540" y="20" as="targetPoint" />
          </mxGeometry>
        </mxCell>
        <mxCell id="WuwuYdfBaCyhpfjzRDQT-20" value="token" style="text;html=1;align=center;verticalAlign=middle;resizable=0;points=[];autosize=1;strokeColor=none;" vertex="1" parent="1">
          <mxGeometry x="230" y="100" width="50" height="20" as="geometry" />
        </mxCell>
        <mxCell id="WuwuYdfBaCyhpfjzRDQT-21" value="token" style="text;html=1;align=center;verticalAlign=middle;resizable=0;points=[];autosize=1;strokeColor=none;" vertex="1" parent="1">
          <mxGeometry x="280" y="210" width="50" height="20" as="geometry" />
        </mxCell>
        <mxCell id="WuwuYdfBaCyhpfjzRDQT-23" value="token" style="text;html=1;align=center;verticalAlign=middle;resizable=0;points=[];autosize=1;strokeColor=none;" vertex="1" parent="1">
          <mxGeometry x="400" y="100" width="50" height="20" as="geometry" />
        </mxCell>
      </root>
    </mxGraphModel>
  </diagram>
</mxfile>
